<svg xmlns="http://www.w3.org/2000/svg" xmlns:xlink="http://www.w3.org/1999/xlink" width="512" height="512" viewBox="0 0 512 512">
  <defs>
    <clipPath id="clip-Custom_Size_1">
      <rect width="512" height="512"/>
    </clipPath>
  </defs>
  <g id="Custom_Size_1" data-name="Custom Size – 1" clip-path="url(#clip-Custom_Size_1)">
    <rect width="512" height="512" fill="#fff"/>
    <rect id="Rectangle_4" data-name="Rectangle 4" width="512" height="513" fill="#012169"/>
    <path id="Path_2" data-name="Path 2" d="M-5,1.4,171.6-85.8V288.6L-5,199.8Z" transform="translate(342 155)" fill="#ebebeb"/>
    <path id="Path_1" data-name="Path 1" d="M0,0,173.6,87.4V285.8L0,373Z" transform="translate(0 69)" fill="#ebebeb"/>
    <rect id="Rectangle_5" data-name="Rectangle 5" width="172" height="512" transform="translate(170)" fill="#ebebeb"/>
    <path id="skrzydełko_czerwone_lewe" data-name="skrzydełko czerwone lewe" d="M31.8,36.933V.133L118,43H42.467Z" transform="translate(-33 128)" fill="#c8102e"/>
    <path id="skrzydełko_czerwone_prawe" data-name="skrzydełko czerwone prawe" d="M160-38.267V0L76.133,43H-2.8Z" transform="translate(352 128)" fill="#c8102e"/>
    <path id="skrzydełko_czerwone_dolne_lewe" data-name="skrzydełko czerwone dolne lewe" d="M0,0H80.467L-85.4,81.667v-38.4Z" transform="translate(85 341)" fill="#c8102e"/>
    <path id="skrzydełko_lewe_dolne_prawe" data-name="skrzydełko lewe dolne prawe" d="M-1.867,0H78l8.667,4.867v38.4Z" transform="translate(426 341)" fill="#c8102e"/>
    <rect id="Rectangle_1" data-name="Rectangle 1" width="102" height="512" transform="translate(205)" fill="#c8102e"/>
    <rect id="Rectangle_3" data-name="Rectangle 3" width="513" height="102" transform="translate(-1 205)" fill="#c8102e"/>
  </g>
</svg>
